<?xml version="1.0" encoding="utf-8"?>
<!-- Generator: Adobe Illustrator 23.0.4, SVG Export Plug-In . SVG Version: 6.00 Build 0)  -->
<svg version="1.1" id="svg1901" xmlns="http://www.w3.org/2000/svg" xmlns:xlink="http://www.w3.org/1999/xlink" x="0px" y="0px"
	 viewBox="0 0 210 212" style="enable-background:new 0 0 210 212;" xml:space="preserve">
<style type="text/css">
	.st0{fill:#FFFFFF;}
	.st1{clip-path:url(#SVGID_2_);}
</style>
<g id="layer1" transform="translate(-548.57831,-631.53488)">
	<g id="g2587" transform="matrix(2.8693914,0,0,2.8726822,-1025.5078,-1502.8931)">
		<g id="g2479" transform="matrix(1.25,0,0,-1.25,574.67214,769.10624)">
			<path id="path2481" class="st0" d="M0-11.4c0-0.9,0.6-2.7,3-2.7c1.7,0,2.9,0.9,2.9,2c0,1.1-0.7,2.1-2.6,2.5l-2,0.4
				c-2.6,0.6-4.2,2-4.2,4.4c0,2.5,1.8,4.9,6,4.9c4.7,0,5.7-3.5,5.7-4.9H5.5c0,0,0.1,2.4-2.7,2.4c-1.5,0-2.6-0.7-2.6-2.1
				c0-1.3,1.2-1.7,1.9-1.9l3-0.6c2.4-0.6,4-1.8,4-4.6c0-4-3.5-5.1-6.2-5.1c-4.6,0-6.2,3.1-6.2,5.4H0"/>
		</g>
		<g id="g2483" transform="matrix(1.25,0,0,-1.25,592.76214,771.91999)">
			<path id="path2485" class="st0" d="M0-11.4h6.1v-2.8h-9.5V2.1H0V-11.4"/>
		</g>
		<g id="g2487" transform="matrix(1.25,0,0,-1.25,-69.18036,855.68624)">
			<g>
				<defs>
					<rect id="SVGID_1_" x="418.5" y="-30.6" width="210" height="171"/>
				</defs>
				<clipPath id="SVGID_2_">
					<use xlink:href="#SVGID_1_"  style="overflow:visible;"/>
				</clipPath>
				<g id="g2489" class="st1">
					<g id="g2495" transform="translate(549.784,73.958)">
						<path id="path2497" class="st0" d="M0-11.4c0.1-0.7,0.1-1.4,0.1-2.2c0-7.1-2.7-13.7-7.7-18.7c-5-5-11.6-7.7-18.7-7.7
							S-40-37.2-45-32.2c-5,5-7.7,11.6-7.7,18.7c0,0.7,0,1.4,0.1,2.2h-2.9c-0.1-0.7-0.1-1.4-0.1-2.2c0-7.8,3-15.2,8.6-20.7
							c5.5-5.5,12.9-8.6,20.7-8.6s15.2,3,20.7,8.6C-0.1-28.8,3-21.4,3-13.6c0,0.7,0,1.4-0.1,2.2H0"/>
					</g>
				</g>
			</g>
		</g>
		<g id="g2499" transform="matrix(1.25,0,0,-1.25,611.19214,763.23874)">
			<path id="path2501" class="st0" d="M0-11.4c0.1-0.7,0.1-1.4,0.1-2.2c0-5.6-2.2-10.8-6.1-14.8c-4-4-9.2-6.1-14.8-6.1
				c-5.6,0-10.8,2.2-14.8,6.1c-4,4-6.1,9.2-6.1,14.8c0,0.7,0,1.4,0.1,2.2h-2.9c-0.1-0.7-0.1-1.4-0.1-2.2c0-6.4,2.5-12.3,7-16.8
				c4.5-4.5,10.5-7,16.8-7c6.4,0,12.3,2.5,16.8,7c4.5,4.5,7,10.5,7,16.8c0,0.7,0,1.4-0.1,2.2H0"/>
		</g>
	</g>
</g>
</svg>
