<?xml version="1.0" encoding="utf-8"?>
<svg version="1.1" id="Lager_1" xmlns="http://www.w3.org/2000/svg" xmlns:xlink="http://www.w3.org/1999/xlink" x="0px" y="0px"
	 viewBox="0 0 107.1 58.5" style="enable-background:new 0 0 107.1 58.5;" xml:space="preserve">
<style type="text/css">
	.st0{fill:#FFFFFF;}
</style>
<g>
	<path class="st0" d="M21.3,52.7c8.1,0,15-5,15-13.2c0-7.8-6.6-10.7-11.6-12.8c-2.8-1.2-6-2.5-6-5.7s3.3-4.6,5.7-4.6
		c3.9,0,5.7,1.6,7.1,2.9l3.9-4.7c-2.4-2.7-6.6-4.2-11.4-4.2c-6.9,0-13.9,3.5-13.9,11.4c0,7.4,5.4,9.6,10.4,11.6
		c3.3,1.3,7.1,2.8,7.1,6.9c0,3.6-3.5,5.9-6.5,5.9c-4.7,0-7.3-2-8.6-4L8.4,48C11.5,51,16.1,52.7,21.3,52.7 M87.5,6.2
		c-3.7,0-6.4,2.3-6.4,5.7c0,3.3,2.7,5.4,6.4,5.4c3.7,0,6.4-2.3,6.4-5.7C93.9,8.3,91.2,6.2,87.5,6.2 M87.5,14.6
		c-1.8,0-3.1-1.1-3.1-2.8S85.7,9,87.5,9c1.8,0,3.1,1.1,3.1,2.8S89.3,14.6,87.5,14.6 M58.7,35.6L70,21h-8.6L50.1,36l11.1,16.2h9.5
		L58.7,35.6z M50.1,10.6h-7.8v41.5h7.8V10.6z M98.5,28.8c0-6.4-5.7-8.5-12.4-8.5c-7.8,0-11.8,4-11.8,4l3.1,4.7c0,0,3.3-3.1,7.9-3.1
		c2.4,0,5.4,0.8,5.4,4v2.5l-7,1.1c-5.5,0.9-10.9,3.6-10.9,10.3c0,5.9,4,9,8.5,9c6,0,9.3-4,9.3-4l0.4,3.5h7.4L98.5,28.8L98.5,28.8z
		 M85,46.7c-2.8,0-4.5-1.1-4.5-4c0-4.5,4-5.4,10.3-5.8v4.6C90.8,44.7,88.4,46.7,85,46.7"/>
</g>
</svg>
