<?xml version="1.0" encoding="utf-8"?>
<svg version="1.1" id="Lager_1" xmlns="http://www.w3.org/2000/svg" x="0px" y="0px"
	 viewBox="0 0 110 110" style="enable-background:new 0 0 110 110;">
<path fill="#ffffff" d="M102.8,40.6c-21,1.4-35.1,15.6-35.1,15.6c-2.8-2.7-5.7-5.2-8.8-7.6c3.4-7.4,5.4-15.4,5.9-23.5c0,0,14.7,2.9,21.6,16.9
	c1.5-0.4,3-0.6,4.6-0.9c-8.6-18.4-30.5-26.3-48.8-17.7c-5,2.4-9.5,5.8-13,10.2C13.3,29.3,2,31.7,2,31.7c49.1,10,65.6,51,65.6,51
	c7-16.5,14.9-26.7,21.5-32.9c0.4,2.2,0.7,4.3,0.8,6.5c0,0,0.6,11.6-7.6,20.7c-6.1,7.3-15.1,11.5-24.5,11.4c-10,0-19.4-4.6-25.5-12.5
	c0,0,9-3.7,17.5-13.4c-1.2-1.1-2.4-2.2-3.6-3.3C41.6,64.6,36,68.9,29.7,72c-4.6-8.2-5.3-18-2-26.8c-1.3-0.9-2.7-1.7-4-2.5
	c-7.7,18.8,1.3,40.3,20,48c18.8,7.7,40.3-1.3,48-20c3.2-7.7,3.6-16.2,1.3-24.2C98.8,41.9,102.8,40.6,102.8,40.6z M34,34.9
	c4.7-5.2,13-11.2,26.1-10.6c-0.4,7.3-2.1,14.5-5.2,21.2C48.5,41.1,41.4,37.5,34,34.9L34,34.9z"/>
</svg>
